<svg width="71" height="41" viewBox="0 0 71 41" fill="none" xmlns="http://www.w3.org/2000/svg">
<g clip-path="url(#clip0_1_1091)">
<g clip-path="url(#clip1_1_1091)">
<g clip-path="url(#clip2_1_1091)">
<path d="M69.9738 28.6836L68.0689 18.4581C67.6137 16.0707 66.3402 13.9168 64.4676 12.3675C62.595 10.8182 60.2408 9.97049 57.8104 9.97045H48.4548C48.15 7.43923 46.9303 5.10677 45.0254 3.41234C43.1204 1.7179 40.6617 0.778431 38.1122 0.770845H14.2222C12.8264 0.764121 11.4528 1.12136 10.2371 1.80734C9.02139 2.49332 8.00547 3.48435 7.28954 4.68268C7.14657 4.93706 7.10822 5.2371 7.18264 5.51926C7.25705 5.80142 7.43838 6.04353 7.68821 6.19432C7.93804 6.3451 8.23676 6.39271 8.52108 6.32706C8.80541 6.26142 9.05302 6.08767 9.21146 5.84263C9.72875 4.97647 10.463 4.26023 11.3418 3.76465C12.2206 3.26906 13.2134 3.01128 14.2222 3.01675H38.1112C40.2606 3.02154 42.3219 3.87122 43.8503 5.38243C45.3788 6.89365 46.2517 8.94521 46.2809 11.0944V33.2934H27.4227C27.1613 31.8282 26.3928 30.5017 25.2518 29.5461C24.1107 28.5905 22.6698 28.0669 21.1814 28.0669C19.6931 28.0669 18.2522 28.5905 17.1111 29.5461C15.9701 30.5017 15.2015 31.8282 14.9402 33.2934H14.2212C13.2645 33.2942 12.3221 33.06 11.477 32.6114C10.6319 32.1628 9.90992 31.5135 9.37446 30.7206C9.20724 30.4736 8.9488 30.3033 8.65597 30.2469C8.36315 30.1906 8.05993 30.2529 7.81302 30.4201C7.56612 30.5873 7.39575 30.8457 7.3394 31.1385C7.28304 31.4314 7.34532 31.7346 7.51253 31.9815C8.25365 33.0787 9.25292 33.977 10.4225 34.5975C11.5921 35.2181 12.8962 35.5418 14.2202 35.5403H14.9332C15.193 37.0091 15.9618 38.3395 17.1046 39.2979C18.2475 40.2564 19.6914 40.7817 21.1829 40.7817C22.6745 40.7817 24.1184 40.2564 25.2613 39.2979C26.4041 38.3395 27.1729 37.0091 27.4327 35.5403H46.3679C46.6276 37.0091 47.3964 38.3395 48.5393 39.2979C49.6821 40.2564 51.126 40.7817 52.6176 40.7817C54.1092 40.7817 55.5531 40.2564 56.6959 39.2979C57.8388 38.3395 58.6076 37.0091 58.8673 35.5403H64.3211C65.1713 35.5423 66.0114 35.3558 66.7808 34.9942C67.5503 34.6325 68.2301 34.1048 68.7711 33.449C69.3122 32.7932 69.7011 32.0255 69.91 31.2014C70.1188 30.3772 70.1423 29.517 69.9788 28.6826L69.9738 28.6836ZM21.1599 38.5202C20.0714 38.5202 19.0275 38.0878 18.2578 37.3181C17.488 36.5484 17.0556 35.5044 17.0556 34.4159C17.0556 33.3274 17.488 32.2834 18.2578 31.5137C19.0275 30.744 20.0714 30.3116 21.1599 30.3116C22.2485 30.3116 23.2924 30.744 24.0621 31.5137C24.8319 32.2834 25.2643 33.3274 25.2643 34.4159C25.2643 35.5044 24.8319 36.5484 24.0621 37.3181C23.2924 38.0878 22.2485 38.5202 21.1599 38.5202ZM52.5926 38.5202C51.5262 38.5197 50.5022 38.1022 49.7395 37.3569C48.9768 36.6116 48.5358 35.5975 48.5108 34.5314C48.5167 34.4936 48.5207 34.4556 48.5228 34.4174V34.1174C48.5812 33.3205 48.8713 32.558 49.3574 31.9238C49.8434 31.2895 50.5042 30.8111 51.2584 30.5474C52.0127 30.2836 52.8276 30.2461 53.603 30.4393C54.3783 30.6325 55.0803 31.0481 55.6226 31.635C56.1649 32.2218 56.5239 32.9544 56.6555 33.7425C56.787 34.5307 56.6854 35.3401 56.363 36.0713C56.0407 36.8025 55.5117 37.4235 54.8412 37.858C54.1706 38.2926 53.3876 38.5217 52.5886 38.5172L52.5926 38.5202ZM67.033 32.0205C66.7026 32.4201 66.2878 32.7416 65.8184 32.9617C65.349 33.1818 64.8366 33.2951 64.3181 33.2934H58.8583C58.589 31.8278 57.8152 30.5028 56.6711 29.548C55.527 28.5933 54.0847 28.0692 52.5946 28.0667C51.1044 28.0673 49.6632 28.5991 48.5298 29.5666V12.2154H57.8104C59.7166 12.2161 61.563 12.881 63.032 14.0957C64.5011 15.3104 65.5011 16.9989 65.86 18.8711L67.7659 29.1016C67.8669 29.6121 67.8536 30.1386 67.7268 30.6433C67.6001 31.148 67.3631 31.6183 67.033 32.0205Z" fill="#F42C37"/>
<path d="M13.5659 13.7514C13.5659 13.6039 13.5369 13.4579 13.4804 13.3216C13.424 13.1854 13.3413 13.0616 13.237 12.9573C13.1327 12.853 13.0089 12.7703 12.8727 12.7138C12.7364 12.6574 12.5904 12.6284 12.4429 12.6284H1.59291C1.301 12.6371 1.02397 12.7592 0.820577 12.9687C0.617181 13.1783 0.503418 13.4588 0.503418 13.7509C0.503418 14.0429 0.617181 14.3234 0.820577 14.533C1.02397 14.7426 1.301 14.8646 1.59291 14.8734H12.4439C12.7414 14.8731 13.0266 14.7548 13.237 14.5444C13.4474 14.3341 13.5656 14.0488 13.5659 13.7514Z" fill="#F42C37"/>
<path d="M13.5659 22.5579C13.5659 22.2601 13.4476 21.9745 13.237 21.7639C13.0264 21.5533 12.7407 21.4349 12.4429 21.4349H4.44288C4.29266 21.4305 4.14306 21.4562 4.00295 21.5106C3.86284 21.565 3.73508 21.6469 3.62723 21.7516C3.51938 21.8563 3.43364 21.9815 3.3751 22.12C3.31655 22.2584 3.28638 22.4072 3.28638 22.5574C3.28638 22.7077 3.31655 22.8565 3.3751 22.9949C3.43364 23.1334 3.51938 23.2586 3.62723 23.3633C3.73508 23.468 3.86284 23.5499 4.00295 23.6043C4.14306 23.6587 4.29266 23.6844 4.44288 23.6799H12.4429C12.7406 23.6799 13.026 23.5618 13.2366 23.3514C13.4472 23.141 13.5656 22.8556 13.5659 22.5579Z" fill="#F42C37"/>
</g>
</g>
</g>
<defs>
<clipPath id="clip0_1_1091">
<rect width="69.61" height="40" fill="white" transform="translate(0.469971 0.77002)"/>
</clipPath>
<clipPath id="clip1_1_1091">
<rect width="69.61" height="40" fill="white" transform="translate(0.469971 0.77002)"/>
</clipPath>
<clipPath id="clip2_1_1091">
<rect width="69.61" height="39.9983" fill="white" transform="translate(0.469971 0.770874)"/>
</clipPath>
</defs>
</svg>
