<svg width="19" height="18" viewBox="0 0 19 18" fill="none" xmlns="http://www.w3.org/2000/svg">
<rect x="0.469971" y="0.589996" width="18.53" height="17" rx="8.5" fill="black"/>
<path d="M9.73797 13.746C8.77797 13.746 7.94997 13.554 7.25397 13.17C6.56597 12.778 6.03797 12.234 5.66997 11.538C5.30197 10.842 5.11797 10.026 5.11797 9.09C5.11797 8.154 5.30197 7.338 5.66997 6.642C6.03797 5.946 6.56597 5.406 7.25397 5.022C7.94997 4.63 8.77797 4.434 9.73797 4.434C10.698 4.434 11.522 4.63 12.21 5.022C12.898 5.406 13.426 5.946 13.794 6.642C14.162 7.338 14.346 8.154 14.346 9.09C14.346 10.018 14.162 10.834 13.794 11.538C13.426 12.234 12.898 12.778 12.21 13.17C11.522 13.554 10.698 13.746 9.73797 13.746ZM9.72597 12.786C10.822 12.786 11.674 12.462 12.282 11.814C12.89 11.166 13.194 10.258 13.194 9.09C13.194 7.922 12.89 7.014 12.282 6.366C11.674 5.71 10.822 5.382 9.72597 5.382C8.63797 5.382 7.78997 5.71 7.18197 6.366C6.57397 7.014 6.26997 7.922 6.26997 9.09C6.26997 10.258 6.57397 11.166 7.18197 11.814C7.78997 12.462 8.63797 12.786 9.72597 12.786Z" fill="white"/>
</svg>
