<svg width="20" height="18" viewBox="0 0 20 18" fill="none" xmlns="http://www.w3.org/2000/svg">
<path d="M17.9063 1.38172C15.6484 -0.516722 12.1602 -0.231566 10 1.96765C7.83985 -0.231566 4.35157 -0.520628 2.09375 1.38172C-0.843745 3.85437 -0.414058 7.88562 1.67969 10.0223L8.53125 17.0028C8.92188 17.4012 9.44532 17.6239 10 17.6239C10.5586 17.6239 11.0781 17.4052 11.4688 17.0067L18.3203 10.0262C20.4102 7.88953 20.8477 3.85828 17.9063 1.38172ZM16.9844 8.70593L10.1328 15.6864C10.0391 15.7802 9.96094 15.7802 9.86719 15.6864L3.01563 8.70593C1.58985 7.25281 1.30079 4.50281 3.30079 2.81922C4.82032 1.54187 7.16407 1.73328 8.63282 3.22937L10 4.6239L11.3672 3.22937C12.8438 1.72547 15.1875 1.54187 16.6992 2.81531C18.6953 4.4989 18.3984 7.26453 16.9844 8.70593Z" fill="#FF0000"/>
</svg>
